<svg xmlns="http://www.w3.org/2000/svg" width="108" height="32" viewBox="0 0 108 32" fill="none">
<g clip-path="url(#clip0_3736_10300)">
<path d="M34.2575 27.8494C38.0537 27.8494 40.7606 25.6377 40.7606 22.6338C40.7606 16.8239 32.1779 17.8472 32.1779 15.8996C32.1779 15.2394 32.772 14.8103 33.6633 14.8103C34.8517 14.8103 37.3275 15.3384 38.7469 16.3948L40.4635 12.7966C38.846 11.5092 36.4032 10.948 34.1585 10.948C30.2632 10.948 27.5564 13.1597 27.5564 16.3288C27.5564 22.3037 36.0731 20.6861 36.0731 22.7988C36.0731 23.459 35.2808 23.9542 34.1585 23.9542C32.3429 23.9542 29.8341 23.1619 28.6127 22.0396L26.8632 25.5057C28.5467 26.9251 31.4846 27.8494 34.2575 27.8494Z" fill="black"/>
<path d="M53.0629 11.2781L47.4512 17.9793V4.37895H42.7967V27.4863H47.4512V20.224L53.327 27.4863H59.3019L52.0396 19.1016L58.7738 11.2781H53.0629Z" fill="black"/>
<path d="M66.9849 27.8164C70.352 27.8164 73.0588 26.562 74.2472 24.4163L70.583 22.1716C70.0218 23.1289 68.5364 23.8222 67.0839 23.8222C64.9052 23.8222 63.4197 22.6998 62.9906 20.6201H74.5773C74.6763 19.9929 74.7093 19.2337 74.7093 18.6725C74.7093 14.3481 71.2762 10.948 66.8858 10.948C62.1653 10.948 58.4682 14.5792 58.4682 19.2997C58.4682 24.1192 62.2314 27.8164 66.9849 27.8164ZM63.0236 17.4511C63.5188 15.7676 64.7402 14.8103 66.6548 14.8103C68.3713 14.8103 69.7908 15.8996 70.0218 17.4511H63.0236Z" fill="black"/>
<path d="M81.47 4.37895H76.8156V27.4863H81.47V4.37895Z" fill="black"/>
<path d="M88.9374 4.37895H84.2829V27.4863H88.9374V4.37895Z" fill="black"/>
<path d="M99.3135 10.948C94.527 10.948 90.8958 14.5792 90.8958 19.3987C90.8958 24.2183 94.527 27.8164 99.3135 27.8164C104.067 27.8164 107.731 24.2183 107.731 19.3987C107.731 14.5792 104.067 10.948 99.3135 10.948ZM95.4183 19.3987C95.4183 17.121 97.1018 15.4045 99.3135 15.4045C101.492 15.4045 103.209 17.121 103.209 19.3987C103.209 21.6435 101.492 23.36 99.3135 23.36C97.1018 23.36 95.4183 21.6435 95.4183 19.3987Z" fill="black"/>
<g clip-path="url(#clip1_3736_10300)">
<path d="M1.33448 15.5357C-0.447236 13.7003 -0.403735 10.7681 1.43164 8.98634L5.47996 5.05639L12.636 12.4279L5.26443 19.584L1.33448 15.5357Z" fill="#50A5FF"/>
<path d="M5.47992 5.05637L9.1657 1.47836C11.2013 -0.497721 14.4534 -0.449474 16.4295 1.58612C18.4056 3.62172 18.3573 6.87383 16.3217 8.84992L12.6359 12.4279L5.47992 5.05637Z" fill="#2B66FE"/>
<path d="M1.47084 30.4257C-0.505245 28.3901 -0.456998 25.138 1.5786 23.162L12.6359 12.4279L16.5659 16.4762C18.3476 18.3116 18.3041 21.2438 16.4687 23.0255L8.73463 30.5335C6.69903 32.5096 3.44692 32.4613 1.47084 30.4257Z" fill="#2E26F2"/>
</g>
</g>
<defs>
<clipPath id="clip0_3736_10300">
<rect width="107.789" height="32" fill="white"/>
</clipPath>
<clipPath id="clip1_3736_10300">
<rect width="17.9368" height="32" fill="white"/>
</clipPath>
</defs>
</svg>
